<svg width="529" height="100" viewBox="0 0 529 100" fill="none" xmlns="http://www.w3.org/2000/svg">
<path d="M73.5536 36.8595L65.7024 42.3967C62.3139 37.0248 57.5619 33.843 51.1569 33.843C41.6941 33.843 34.752 40.7852 34.752 50.6199C34.752 60.4133 41.6941 67.2314 51.1569 67.2314C57.5619 67.2314 62.3139 64.091 65.7024 58.6777L73.5536 64.2149C69.1734 71.9835 60.9503 76.8182 51.0743 76.8182C35.9917 76.8182 24.0496 65.4133 24.0496 50.4959C24.0496 35.5785 35.9917 24.1736 51.1569 24.1736C60.909 24.2149 69.0495 29.0496 73.5536 36.8595Z" fill="black"/>
<path d="M135.041 55.9091V75.9504H124.628V55.9917L107.066 25.124H118.636L129.876 45.3306L141.033 25.124H152.479L135.041 55.9091Z" fill="#9013FE"/>
<path d="M232.396 36.8595L224.545 42.3967C221.157 37.0248 216.405 33.843 210 33.843C200.537 33.843 193.595 40.7851 193.595 50.6198C193.595 60.4132 200.537 67.2314 210 67.2314C216.405 67.2314 221.157 64.0909 224.545 58.6777L232.396 64.2149C228.016 72.0248 219.752 76.8595 209.917 76.8595C194.834 76.8595 182.892 65.4545 182.892 50.5372C182.892 35.6198 194.834 24.2149 210 24.2149C219.752 24.2149 227.933 29.0496 232.396 36.8595V36.8595ZM280.082 66.5702H302.355V75.9504H269.71V25.1239H280.082V66.5702ZM372.685 34.5454H348.883V44.8347H366.363V53.719H348.883V66.5702H373.594V75.9504H338.512V25.1239H372.685V34.5454ZM421.528 27.2314C422.726 27.1901 425.288 27.1074 427.148 27.1074C432.23 27.1074 433.883 29.4215 433.883 32.3967C433.883 35.2479 431.941 36.9008 429.71 37.3967V37.438C432.809 37.8099 434.668 39.5868 434.668 42.562C434.668 46.8182 431.404 48.6363 427.065 48.6363C425.247 48.6363 422.726 48.5537 421.486 48.5124V27.2314H421.528ZM423.222 28.8016V36.9421H427.354C429.999 36.9421 432.189 35.3719 432.189 32.7686C432.189 30.1653 430.577 28.719 427.065 28.719C425.784 28.6777 424.048 28.7603 423.222 28.8016V28.8016ZM423.222 38.3884V46.9421C424.09 46.9835 425.825 47.0661 427.189 47.0661C430.867 47.0661 433.057 45.5785 433.057 42.4793C433.057 39.876 430.991 38.3884 427.272 38.3884H423.222ZM461.445 27.1901H463.139V48.5537H461.445V27.1901ZM487.891 27.1901H505.371V28.8016H497.478V48.5537H495.784V28.8016H487.891V27.1901Z" fill="black"/>
</svg>
